<svg id="Layer_1" data-name="Layer 1" xmlns="http://www.w3.org/2000/svg" viewBox="0 0 277.26 247.78"><defs><style>.cls-1,.cls-2,.cls-3{fill:#231f20;}.cls-2,.cls-3,.cls-4{stroke:#231f20;stroke-miterlimit:10;}.cls-2,.cls-4{stroke-width:3.5px;}.cls-3{stroke-width:0.75px;}.cls-4{fill:none;}</style></defs><path class="cls-1" d="M138,238H122.6V187.47H54.77V238H39.41V127.24H54.77v48.57H122.6V127.24H138Z" transform="translate(-39.03 -24.87)"/><path class="cls-2" d="M175,235.85q-12.21,0-19.55-8t-7.35-20.95q0-13.85,7.49-22.1t20.38-8.24q11.88,0,19.15,8t7.27,20.94q0,14.06-7.45,22.22T175,235.85Zm.48-53.25a18.51,18.51,0,0,0-14.69,6.53q-5.64,6.52-5.65,17.13t5.51,17.08A18,18,0,0,0,175,229.81q9.45,0,14.9-6.17t5.44-17.26q0-11.37-5.28-17.57T175.43,182.6Z" transform="translate(-39.03 -24.87)"/><path class="cls-2" d="M266.43,234.89h-6.69V196.37q0-4.56.56-11.17h-.16a35.4,35.4,0,0,1-1.72,5.57L238.8,234.89h-3.28l-19.58-43.8a33.58,33.58,0,0,1-1.72-5.89h-.16q.31,3.45.32,11.25v38.44h-6.49V177.48h8.89l17.62,40A50.87,50.87,0,0,1,237,224.4h.24q1.72-4.72,2.76-7.05l18-39.87h8.41Z" transform="translate(-39.03 -24.87)"/><path class="cls-2" d="M306.21,234.89H275.78V177.48h29.15v6.08H282.51v19.1h20.74v6.05H282.51v20.1h23.7Z" transform="translate(-39.03 -24.87)"/><path class="cls-3" d="M63.89,271.78H39.41V242.65H62.85v3.09h-18v9.69H61.5v3.07H44.82v10.19H63.89Z" transform="translate(-39.03 -24.87)"/><path class="cls-3" d="M68.16,271.78V242.65H80.91q24.41,0,24.41,14.2,0,6.75-6.78,10.84t-18.15,4.09Zm5.41-26v22.95h6.89q9.08,0,14.14-3.06a9.66,9.66,0,0,0,5.05-8.7q0-11.19-18.87-11.19Z" transform="translate(-39.03 -24.87)"/><path class="cls-3" d="M119.71,242.65v2.93H115.2v23.28h4.51v2.92H105.28v-2.92h4.51V245.58h-4.51v-2.93Z" transform="translate(-39.03 -24.87)"/><path class="cls-3" d="M150,245.74H136.7v26h-5.41v-26H118v-3.09h32Z" transform="translate(-39.03 -24.87)"/><path class="cls-3" d="M171.67,272.27q-9.82,0-15.73-4.08T150,257.56a13,13,0,0,1,6-11.21q6-4.18,16.4-4.18,9.56,0,15.41,4.06t5.84,10.62a13,13,0,0,1-6,11.27Q181.73,272.27,171.67,272.27Zm.39-27q-7.27,0-11.82,3.32a10.63,10.63,0,0,0-.11,17.35q4.43,3.29,11.54,3.28,7.61,0,12-3.13a10.13,10.13,0,0,0,4.38-8.75,10.43,10.43,0,0,0-4.25-8.92Q179.53,245.25,172.06,245.25Z" transform="translate(-39.03 -24.87)"/><path class="cls-3" d="M231.27,271.78h-6.44l-7.73-8.16a19,19,0,0,0-2.06-1.94,10.18,10.18,0,0,0-2-1.31,9.23,9.23,0,0,0-2.26-.75,14.85,14.85,0,0,0-2.72-.23h-4.44v12.39h-5.41V242.65H212a30.41,30.41,0,0,1,5.59.48,16.08,16.08,0,0,1,4.44,1.45,8.26,8.26,0,0,1,3,2.43,5.9,5.9,0,0,1,.34,6.2,7.55,7.55,0,0,1-2.06,2.26,13.37,13.37,0,0,1-3.22,1.7,22.8,22.8,0,0,1-4.24,1.08v.08a12.15,12.15,0,0,1,2,.75,10.07,10.07,0,0,1,1.63,1,17.47,17.47,0,0,1,1.53,1.29c.5.48,1.07,1,1.69,1.68Zm-27.69-26V256.3h7.34a17,17,0,0,0,3.75-.38,10.75,10.75,0,0,0,3-1.11,5.72,5.72,0,0,0,2-1.77,4.05,4.05,0,0,0-1.69-6,14.8,14.8,0,0,0-6.94-1.31Z" transform="translate(-39.03 -24.87)"/><path class="cls-3" d="M242.92,242.65v2.93h-4.51v23.28h4.51v2.92H228.49v-2.92H233V245.58h-4.51v-2.93Z" transform="translate(-39.03 -24.87)"/><path class="cls-3" d="M281.68,271.78h-6l-4.89-8.16H251.22l-4.61,8.16h-6l17.71-29.13h5.61ZM269,260.55l-7.25-12.41a8.54,8.54,0,0,1-.71-1.95h-.13a7.45,7.45,0,0,1-.74,1.95L253,260.55Z" transform="translate(-39.03 -24.87)"/><path class="cls-3" d="M307.82,271.78h-24V242.65h5.41v26h18.55Z" transform="translate(-39.03 -24.87)"/><polyline class="cls-4" points="112.31 142.12 194.35 94.22 268.79 143.95"/><line class="cls-4" x1="115.4" y1="183.54" x2="156.92" y2="183.54"/><line class="cls-4" x1="136.34" y1="206.69" x2="136.34" y2="154.78"/><line class="cls-4" x1="111.86" y1="232.66" x2="153.81" y2="232.66"/><line class="cls-4" x1="132.53" y1="219.71" x2="132.53" y2="244.34"/><path d="M210.78,133.46c.14-.14.27-.28.42-.41a27.16,27.16,0,0,1,10.4-6.11,42.83,42.83,0,0,0-4-3.14,48.42,48.42,0,0,1-9-7.91,12.6,12.6,0,0,1-3.21-8.76A31.74,31.74,0,0,1,207,98.41c.3-1,.62-1.9,1-3a4.89,4.89,0,0,0-1,.44A17.92,17.92,0,0,0,204.32,98a17.31,17.31,0,0,0-4.21,12.62c0,1.21,0,2.36-1.35,3A5.06,5.06,0,0,1,196,114a17.76,17.76,0,0,1-5.57-1.6A26.83,26.83,0,0,1,181,105.7c-2.43-2.79-2.89-5.7-1-8.93a78.87,78.87,0,0,1,5.32-7.84c3.23-4.27,6.59-8.47,9.42-13A35.39,35.39,0,0,0,199,67c.21-.72.35-1.45.52-2.17l-.18-.07q-1.68,2.18-3.37,4.34c-1.82,2.32-3.61,4.67-5.5,6.94a9.43,9.43,0,0,1-2.25,1.84,1.14,1.14,0,0,1-1.74-.44,4.81,4.81,0,0,1-.63-1.83c-.1-1.42-.07-2.84-.06-4.26a42.12,42.12,0,0,1,1.49-10.21,38.57,38.57,0,0,1,3.81-9.57,22.63,22.63,0,0,1,3.76-4.92.87.87,0,0,0-.17,0l-.38.19a21.54,21.54,0,0,0-9.58,9.86,46.6,46.6,0,0,0-3.93,12.45c-.81,4.23-1.52,8.47-2.35,12.69a25.93,25.93,0,0,1-2.74,7.85,6.62,6.62,0,0,1-.94,1.3,1,1,0,0,1-1.81-.14,6.88,6.88,0,0,1-.74-1.58,30.72,30.72,0,0,1-1.32-9.21A63.87,63.87,0,0,1,175,57.14a88.48,88.48,0,0,1,9.57-19,68.85,68.85,0,0,1,8.15-10.19c1-1,2.08-2,3.12-3h-.25c-.56.25-1.11.5-1.68.74a35,35,0,0,0-12.07,8.79,62.28,62.28,0,0,0-10.31,15.93,104.21,104.21,0,0,0-5.63,14.72,13.2,13.2,0,0,1-1,2.27c-.25.48-.62.45-.88,0a4.18,4.18,0,0,1-.36-.88,35.85,35.85,0,0,1-1-11.89,53.72,53.72,0,0,1,2.39-12.27c.2-.64.41-1.28.64-2a1,1,0,0,0-.2.09,25.1,25.1,0,0,0-6.31,10.36,34.69,34.69,0,0,0-1.15,14,59.15,59.15,0,0,0,3,13.28c.95,2.74,2.15,5.4,3.11,8.12a58.48,58.48,0,0,1,2.92,11.28,14.7,14.7,0,0,1,0,3.69c-.1.85-.79,1.09-1.56.59a12.64,12.64,0,0,1-2.4-2,58.68,58.68,0,0,1-10.34-15.65c-.47-1-.92-2-1.38-3a26,26,0,0,0,.41,6.48,30.07,30.07,0,0,0,5.69,12.94A45.7,45.7,0,0,0,169.21,111a106.09,106.09,0,0,0,14.12,7.56c4.89,2.22,9.82,4.36,14.7,6.6a47.59,47.59,0,0,1,10.6,6.24A17.05,17.05,0,0,1,210.78,133.46Z" transform="translate(-39.03 -24.87)"/><path d="M256.86,133.46c-.14-.14-.27-.28-.42-.41a27.16,27.16,0,0,0-10.4-6.11,42.83,42.83,0,0,1,4-3.14,48.42,48.42,0,0,0,9-7.91,12.6,12.6,0,0,0,3.21-8.76,31.74,31.74,0,0,0-1.61-8.72c-.3-1-.62-1.9-1-3a4.89,4.89,0,0,1,1,.44A17.92,17.92,0,0,1,263.32,98a17.31,17.31,0,0,1,4.21,12.62c0,1.21,0,2.36,1.35,3a5.06,5.06,0,0,0,2.75.34,17.68,17.68,0,0,0,5.57-1.6,26.83,26.83,0,0,0,9.46-6.73c2.43-2.79,2.89-5.7,1-8.93a78.87,78.87,0,0,0-5.32-7.84c-3.23-4.27-6.59-8.47-9.42-13A35.74,35.74,0,0,1,268.68,67c-.21-.72-.35-1.45-.52-2.17l.18-.07Q270,67,271.71,69.12c1.82,2.32,3.61,4.67,5.5,6.94a9.43,9.43,0,0,0,2.25,1.84,1.14,1.14,0,0,0,1.74-.44,4.81,4.81,0,0,0,.63-1.83c.1-1.42.07-2.84.06-4.26a42.12,42.12,0,0,0-1.49-10.21,38.57,38.57,0,0,0-3.81-9.57,22.63,22.63,0,0,0-3.76-4.92.87.87,0,0,1,.17,0l.38.19A21.54,21.54,0,0,1,283,56.72a46.25,46.25,0,0,1,3.93,12.45c.81,4.23,1.52,8.47,2.35,12.69A25.93,25.93,0,0,0,292,89.71a6.62,6.62,0,0,0,.94,1.3,1,1,0,0,0,1.81-.14,6.88,6.88,0,0,0,.74-1.58,30.72,30.72,0,0,0,1.32-9.21,67.73,67.73,0,0,0-.5-8.3,66.9,66.9,0,0,0-3.64-14.64,88.48,88.48,0,0,0-9.57-19,68.21,68.21,0,0,0-8.15-10.19c-1-1-2.08-2-3.12-3h.25c.56.25,1.11.5,1.68.74a35,35,0,0,1,12.07,8.79,62.28,62.28,0,0,1,10.31,15.93,104.21,104.21,0,0,1,5.63,14.72,13.2,13.2,0,0,0,1,2.27c.25.48.62.45.88,0a4.18,4.18,0,0,0,.36-.88,35.85,35.85,0,0,0,1-11.89,53.72,53.72,0,0,0-2.39-12.27c-.2-.64-.41-1.28-.64-2a1,1,0,0,1,.2.09,25.1,25.1,0,0,1,6.31,10.36,34.69,34.69,0,0,1,1.15,14,59.15,59.15,0,0,1-3,13.28c-.95,2.74-2.15,5.4-3.11,8.12a58.48,58.48,0,0,0-2.92,11.28,14.7,14.7,0,0,0,0,3.69c.1.85.79,1.09,1.56.59a12.64,12.64,0,0,0,2.4-2,58.68,58.68,0,0,0,10.34-15.65c.47-1,.92-2,1.38-3a26,26,0,0,1-.41,6.48,30.07,30.07,0,0,1-5.69,12.94A45.7,45.7,0,0,1,298.43,111a106.09,106.09,0,0,1-14.12,7.56c-4.89,2.22-9.82,4.36-14.7,6.6a47.81,47.81,0,0,0-10.6,6.24A17.05,17.05,0,0,0,256.86,133.46Z" transform="translate(-39.03 -24.87)"/></svg>